<svg xmlns="http://www.w3.org/2000/svg" xmlns:xlink="http://www.w3.org/1999/xlink" width="180" zoomAndPan="magnify" viewBox="0 0 135 135.000003" height="180" preserveAspectRatio="xMidYMid meet" version="1.0"><defs><clipPath id="eb95311f22"><path d="M 0.496094 0 L 134.503906 0 L 134.503906 134.007812 L 0.496094 134.007812 Z M 0.496094 0 " clip-rule="nonzero"/></clipPath></defs><g clip-path="url(#eb95311f22)"><path fill="#ffffff" d="M 0.496094 0 L 134.503906 0 L 134.503906 134.007812 L 0.496094 134.007812 Z M 0.496094 0 " fill-opacity="1" fill-rule="nonzero"/></g><path stroke-linecap="butt" transform="matrix(4.620943, 0, 0, 4.620943, 0.496322, 0.00000694853)" fill-opacity="1" fill="#ffffff" fill-rule="nonzero" stroke-linejoin="miter" d="M 2.000016 2.499657 L 9.000244 2.499657 M 12.000342 2.499657 L 15.999627 2.499657 M 19.999758 2.499657 L 26.999986 2.499657 M 2.000016 3.49969 L 3.000049 3.49969 M 8.000212 3.49969 L 9.000244 3.49969 M 10.000277 3.49969 L 14.000407 3.49969 M 17.999693 3.49969 L 18.999725 3.49969 M 19.999758 3.49969 L 20.999791 3.49969 M 25.999954 3.49969 L 26.999986 3.49969 M 2.000016 4.499723 L 3.000049 4.499723 M 4.000081 4.499723 L 7.000179 4.499723 M 8.000212 4.499723 L 9.000244 4.499723 M 10.000277 4.499723 L 13.000375 4.499723 M 17.999693 4.499723 L 18.999725 4.499723 M 19.999758 4.499723 L 20.999791 4.499723 M 21.999823 4.499723 L 24.999921 4.499723 M 25.999954 4.499723 L 26.999986 4.499723 M 2.000016 5.499755 L 3.000049 5.499755 M 4.000081 5.499755 L 7.000179 5.499755 M 8.000212 5.499755 L 9.000244 5.499755 M 10.000277 5.499755 L 13.000375 5.499755 M 14.999595 5.499755 L 15.999627 5.499755 M 16.99966 5.499755 L 18.999725 5.499755 M 19.999758 5.499755 L 20.999791 5.499755 M 21.999823 5.499755 L 24.999921 5.499755 M 25.999954 5.499755 L 26.999986 5.499755 M 2.000016 6.499788 L 3.000049 6.499788 M 4.000081 6.499788 L 7.000179 6.499788 M 8.000212 6.499788 L 9.000244 6.499788 M 11.00031 6.499788 L 12.000342 6.499788 M 14.000407 6.499788 L 14.999595 6.499788 M 15.999627 6.499788 L 16.99966 6.499788 M 17.999693 6.499788 L 18.999725 6.499788 M 19.999758 6.499788 L 20.999791 6.499788 M 21.999823 6.499788 L 24.999921 6.499788 M 25.999954 6.499788 L 26.999986 6.499788 M 2.000016 7.499821 L 3.000049 7.499821 M 8.000212 7.499821 L 9.000244 7.499821 M 14.999595 7.499821 L 15.999627 7.499821 M 19.999758 7.499821 L 20.999791 7.499821 M 25.999954 7.499821 L 26.999986 7.499821 M 2.000016 8.499853 L 9.000244 8.499853 M 10.000277 8.499853 L 11.00031 8.499853 M 12.000342 8.499853 L 13.000375 8.499853 M 14.000407 8.499853 L 14.999595 8.499853 M 15.999627 8.499853 L 16.99966 8.499853 M 17.999693 8.499853 L 18.999725 8.499853 M 19.999758 8.499853 L 26.999986 8.499853 M 10.000277 9.499886 L 11.00031 9.499886 M 12.000342 9.499886 L 13.000375 9.499886 M 15.999627 9.499886 L 16.99966 9.499886 M 17.999693 9.499886 L 18.999725 9.499886 M 2.000016 10.499919 L 3.000049 10.499919 M 8.000212 10.499919 L 9.000244 10.499919 M 10.000277 10.499919 L 12.000342 10.499919 M 14.999595 10.499919 L 20.999791 10.499919 M 22.999856 10.499919 L 25.999954 10.499919 M 2.000016 11.499951 L 3.000049 11.499951 M 4.000081 11.499951 L 7.000179 11.499951 M 14.000407 11.499951 L 17.999693 11.499951 M 20.999791 11.499951 L 22.999856 11.499951 M 24.999921 11.499951 L 25.999954 11.499951 M 3.000049 12.499984 L 5.000114 12.499984 M 8.000212 12.499984 L 10.000277 12.499984 M 12.000342 12.499984 L 14.999595 12.499984 M 16.99966 12.499984 L 18.999725 12.499984 M 20.999791 12.499984 L 22.999856 12.499984 M 24.999921 12.499984 L 26.999986 12.499984 M 2.000016 13.500016 L 4.000081 13.500016 M 6.000146 13.500016 L 7.000179 13.500016 M 9.000244 13.500016 L 10.000277 13.500016 M 11.00031 13.500016 L 12.000342 13.500016 M 13.000375 13.500016 L 14.999595 13.500016 M 16.99966 13.500016 L 19.999758 13.500016 M 22.999856 13.500016 L 23.999889 13.500016 M 24.999921 13.500016 L 26.999986 13.500016 M 4.000081 14.500049 L 7.000179 14.500049 M 8.000212 14.500049 L 9.000244 14.500049 M 10.000277 14.500049 L 11.00031 14.500049 M 14.000407 14.500049 L 14.999595 14.500049 M 17.999693 14.500049 L 21.999823 14.500049 M 22.999856 14.500049 L 23.999889 14.500049 M 25.999954 14.500049 L 26.999986 14.500049 M 2.000016 15.500082 L 4.000081 15.500082 M 6.000146 15.500082 L 7.000179 15.500082 M 9.000244 15.500082 L 10.000277 15.500082 M 12.000342 15.500082 L 13.000375 15.500082 M 16.99966 15.500082 L 17.999693 15.500082 M 20.999791 15.500082 L 21.999823 15.500082 M 23.999889 15.500082 L 24.999921 15.500082 M 2.000016 16.500114 L 3.000049 16.500114 M 4.000081 16.500114 L 6.000146 16.500114 M 7.000179 16.500114 L 9.000244 16.500114 M 10.000277 16.500114 L 11.00031 16.500114 M 12.000342 16.500114 L 14.999595 16.500114 M 15.999627 16.500114 L 19.999758 16.500114 M 20.999791 16.500114 L 23.999889 16.500114 M 24.999921 16.500114 L 26.999986 16.500114 M 2.000016 17.500147 L 3.000049 17.500147 M 7.000179 17.500147 L 8.000212 17.500147 M 11.00031 17.500147 L 12.000342 17.500147 M 13.000375 17.500147 L 14.000407 17.500147 M 20.999791 17.500147 L 21.999823 17.500147 M 22.999856 17.500147 L 24.999921 17.500147 M 25.999954 17.500147 L 26.999986 17.500147 M 2.000016 18.50018 L 3.000049 18.50018 M 4.000081 18.50018 L 6.000146 18.50018 M 7.000179 18.50018 L 9.000244 18.50018 M 10.000277 18.50018 L 14.000407 18.50018 M 14.999595 18.50018 L 16.99966 18.50018 M 17.999693 18.50018 L 24.999921 18.50018 M 10.000277 19.500212 L 11.00031 19.500212 M 14.000407 19.500212 L 15.999627 19.500212 M 17.999693 19.500212 L 18.999725 19.500212 M 21.999823 19.500212 L 22.999856 19.500212 M 2.000016 20.500245 L 9.000244 20.500245 M 11.00031 20.500245 L 14.000407 20.500245 M 14.999595 20.500245 L 15.999627 20.500245 M 17.999693 20.500245 L 18.999725 20.500245 M 19.999758 20.500245 L 20.999791 20.500245 M 21.999823 20.500245 L 22.999856 20.500245 M 23.999889 20.500245 L 24.999921 20.500245 M 25.999954 20.500245 L 26.999986 20.500245 M 2.000016 21.500277 L 3.000049 21.500277 M 8.000212 21.500277 L 9.000244 21.500277 M 11.00031 21.500277 L 12.000342 21.500277 M 14.000407 21.500277 L 14.999595 21.500277 M 16.99966 21.500277 L 18.999725 21.500277 M 21.999823 21.500277 L 23.999889 21.500277 M 24.999921 21.500277 L 25.999954 21.500277 M 2.000016 22.50031 L 3.000049 22.50031 M 4.000081 22.50031 L 7.000179 22.50031 M 8.000212 22.50031 L 9.000244 22.50031 M 11.00031 22.50031 L 13.000375 22.50031 M 14.000407 22.50031 L 26.999986 22.50031 M 2.000016 23.500343 L 3.000049 23.500343 M 4.000081 23.500343 L 7.000179 23.500343 M 8.000212 23.500343 L 9.000244 23.500343 M 11.00031 23.500343 L 13.000375 23.500343 M 15.999627 23.500343 L 17.999693 23.500343 M 18.999725 23.500343 L 20.999791 23.500343 M 22.999856 23.500343 L 26.999986 23.500343 M 2.000016 24.500375 L 3.000049 24.500375 M 4.000081 24.500375 L 7.000179 24.500375 M 8.000212 24.500375 L 9.000244 24.500375 M 11.00031 24.500375 L 16.99966 24.500375 M 17.999693 24.500375 L 18.999725 24.500375 M 20.999791 24.500375 L 21.999823 24.500375 M 22.999856 24.500375 L 23.999889 24.500375 M 25.999954 24.500375 L 26.999986 24.500375 M 2.000016 25.500408 L 3.000049 25.500408 M 8.000212 25.500408 L 9.000244 25.500408 M 13.000375 25.500408 L 14.000407 25.500408 M 17.999693 25.500408 L 18.999725 25.500408 M 19.999758 25.500408 L 20.999791 25.500408 M 22.999856 25.500408 L 23.999889 25.500408 M 25.999954 25.500408 L 26.999986 25.500408 M 2.000016 26.499595 L 9.000244 26.499595 M 10.000277 26.499595 L 11.00031 26.499595 M 14.000407 26.499595 L 16.99966 26.499595 M 17.999693 26.499595 L 18.999725 26.499595 M 21.999823 26.499595 L 23.999889 26.499595 M 25.999954 26.499595 L 26.999986 26.499595 " stroke="#bd5e5e" stroke-width="1" stroke-opacity="1" stroke-miterlimit="4"/></svg>